<svg xmlns="http://www.w3.org/2000/svg" width="275" height="225" viewBox="0 0 1100 900">
  <defs>
    <style>
      .cls-1 {
        fill-rule: evenodd;
      }
    </style>
  </defs>
  <path id="Color_Fill_1" data-name="Color Fill 1" class="cls-1" d="M818,406c43.547-.288,113.177,6.4,140,23,17.312,10.715,28.748,27.032,40,44,8.98,13.544,21.96,30.68,22,52-4.47,4.059-33.082,24-34,26v49c-3.349,5.758-.338,15.724-2,23-4.35,19.045-4.2,39.042-10,57-19.035,58.893-42.651,112.591-87,146-9.672,7.286-19.107,19.291-31,24H146c-33.207,0-54.272,1.689-71-15-24.528-24.471-42.9-83.377-27-132,3.142-9.609,7.726-20.025,13-28,2.565-3.879,8.468-8.638,10-13V637c1.747-7.86,3.563-16.556,4-25,8.779-5.792,14.7-16.543,22-24,15.5-15.827,31.417-31.251,48-46,9.293-8.266,17.078-19.5,27-27,4.44-3.358,25.373-19.368,27-23V477c4.662-7.764-1.148-24.12,1-34,5.8-26.693,1.253-60.018,7-86,1.818-8.217-.958-18.845,3-25,3.1-8.238,14.234-13.134,21-18,19.058-13.706,37.243-29.824,57-43,6.248-4.167,25.119-13.124,27-20-21.11-14.465-4.811-70.52,3-89,2.586-6.119,2.867-15.512,9-18,4.827-4.28,25.732-9.337,34-10q-0.5-3-1-6l-5-1-5-6c-0.159-7.755-2.31-23.372,1-29,1.676-2.849,7.567-2.94,9-6q0.5-4,1-8c3.817-9.115,12.874-18.2,22-22,22.172-9.24,46.614,1.9,56,15,1.749,2.441,1.18,5.361,3,8,3.586,5.2,7.608-1.372,8,10-4.58,7.47,1.141,12.168,1,20-0.141,7.849-2.593,15.234-4,22-4.445.877-9.872,2.441-11,7-0.752,1.073-.6.946-1,3,32.113,15.054,34.6,25.083,48,58l173,25c12.232,2.986,33.835,2.556,45,7,4.284,1.705,7.744,8.184,12,7,5.7-1.893,9.554-6.875,14-10q18.735-13.168,37-26c18.594-13.063,38.015-24.207,56-38,3.8-2.915,3.458-7.657,6-12,3.678-6.284,10.237-14.7,16-19,22.227-16.578,45.242-32.7,66-51,9.2-8.109,18.336-17.435,29-24,38.871-23.931,90.47,2.128,107,27,23.65,35.587,12.58,86.728-16,108-15.34,11.416-35.238,16.848-54,25-22.9,9.952-46.965,23.227-71,31-7.9,2.556-17.9-.959-27,2-7.977,2.595-16.962,9.719-24,14-14.105,8.58-29.351,14.7-43,23-12.148,7.388-32.286,12.651-42,22,6.631,7.554,14.639,45.878,15,61h2c4.677,2.869,23.225,3.557,29,5C816.692,383.467,818.008,394.3,818,406ZM968,66c-6.346,3.862-20.018,3.483-27,8-24.551,15.884-44.931,38.594-68,56-11.614,8.763-27.922,19.072-34,33-4.2,9.632-3.439,20.559-3,33h1c7.54-7.515,18.138-11.792,27-18,13.9-9.739,27.58-22.095,43-30-0.21-10.109,2.192-14.722,4-22h2c-0.523,34.2,18.224,54.32,42,64,27.421,11.164,60.69-3.739,72-19,4.65-6.276,9.62-14.987,12-23,9.94-33.527-11.83-64.45-32-75C996.575,67.546,983.85,65.782,968,66Zm4,10c20.191-.491,28.02,4.746,40,11v2h-1c-2.86-2.323-6.82-2.963-12-3-6.213,9.225-17.142,17.306-26,24l-12,13c-5.258,3.979-18.086,12.641-19,20,3.356,4.477,3.323,10.683,10,12,11.907-11.718,38.668-21.641,54-31,6.85-4.179,14.23-11.245,23-13,2.58,4.631,4,8.286,4,16-16.76,7.488-32.78,15.421-50,23-8.117,3.572-15.639,9.367-25,12v1h1c4.636,4.6,11.8,4.366,19,2,15.7-5.163,32.84-12.244,50-15v1c-10.2,12.494-17.65,23.521-36,28-38.81,9.473-73.507-32.173-62-67,4.351-13.168,15.7-26.782,28-32C962.555,78.068,968.08,78.546,972,76ZM387,81c-1.133,1.546-1.085.843-2,3-3.4,5.029-.065,16.594,1,21h5c3.022,2.062,16.815,1.89,20,0,1.847-1.1,4.66-6.235,6-8l12,1c2.133,6.322,1.789,10.225,11,10v-2c3.526-4.335,3.365-13.67,2-20l-24-5H387Zm11,34c-0.109,7.326,1.594,10.83,3,16,6.611,3.435,24.7,9.833,29-1,2.508-3.154,3.672-8.874,4-14-10.317-2.738-3.713-9.442-15-10C416.675,113.745,408,115.186,398,115Zm57,80c-1.16-10.061-2.933-19.529-3-32-3.5-.964-9.6-4.367-12-3-4.59,4.766-6.229,10.221-13,13-21.329,8.753-50.785-9.574-58-22a87.19,87.19,0,0,1-15,2,14.124,14.124,0,0,0-1,4c7.338,9.629,7.018,37.711,7,55h-1c-2.871-2.768-7.341-5.164-11-7v2c5.2,5.169,9.243,13.589,13,20,1.754-.631.971-0.193,2-1,7.426-1.842,13.771-6.748,20-10C404.663,204.69,422.089,195.356,455,195Zm369-15c-8.961,11.133-29.77,20.429-42,29-34.229,23.986-68.79,48.96-103,73-14.525,10.207-48.527,21.055-38,49,14.078-6.587,27.089-16.932,40-25,30.65-19.153,61.857-36.969,92-56,15.386-9.714,31.039-18.566,46-28,5.037-3.176,11.409-4.46,15-9-6.914-5.616-8.1-20.537-8-33h-2ZM473,336l58,7c0.2-18.7.081-36.938-4-53-2.351-9.251-7.349-21.026-6-30,3.133-1.662,5.844-4.826,9-6,9.737-3.624,37.184,2.746,47,5l30,3a389.271,389.271,0,0,0,63,9c7.1-8.938,21.018-11.991,28-21h-1c-8.231-7.3-52.013-7.441-67-11-26.725-6.346-56.442-5.372-84-12-14.975-3.6-31.808-3.176-48-7a216.934,216.934,0,0,0-49-6c-1.947,3.086-2.887,3.43-3,9,5.33,6.124,5.922,16.674,9,25C464.646,274.1,468.847,303.223,473,336Zm7-107a30.439,30.439,0,0,1,7,1c1.043,3.528,1.974,5.533,2,11-0.8,1.021-.355.274-1,2a18.247,18.247,0,0,1-9,2c-2.516-3.881-3.984-4.934-4-12A24.935,24.935,0,0,0,480,229Zm71,41c2.707,8.083,9.208,14.281,12,23,6.509,20.324-2.967,39.058-7,54h8c4.68,2.887,39.97,5.431,48,6v-1h1c1.113-9.826,13.227-48.862,18-55,2.263-2.911,16.254-11.143,20-13v-1h-4c-7.588-4.635-20.412-1.8-30-4C596.8,274.356,572.99,270.528,551,270Zm-61,1h8c1.4,4.119,2.894,4.62,3,11-3.008,2.886-3.131,4.542-9,5-1.411-1.514-2.764-2.209-4-4-1.344-1.681-1.637-3.143-2-6A32.314,32.314,0,0,0,490,271Zm7,45c4.631,0.03,6.02.479,8,3,5.76,6.653-.195,13.438-9,13-1.976-3.347-3.552-4.747-4-10A49.244,49.244,0,0,0,497,316Zm252,1c-5.737,5.014-15.78,4.281-16,15,4.559,6.822-1.011,31.3-3,36h2c5.839,3.654,25.17,3.476,33,5v-6C759.005,356.628,760.69,320.205,749,317Zm-76,44c13.95,1.466,27.031,4.713,42,5,1.362-10.422,3.238-20.34,3-32h-1c-9.772,8.854-35.735,14.825-43,24C673.248,359.073,673.4,358.946,673,361Zm-205-9v14c17-.252,37.2,1.5,52,5,18.7,4.427,35.288,3.335,51,10,9.834,4.172,20.56,10.807,29,17,3.721,2.73,7.085,8.847,11,11,8.866,4.875,29.675,1.441,41,4,15.409,3.482,32.47,1.281,49,5,16.872,3.8,37.551,5.731,56,6,10.028-16.422,14.946-19.475,42-19V392Zm-47,29-38,13a634.807,634.807,0,0,0-103,56c-11.139,7.43-28.436,14.132-36,25h1c10.134-9.743,29.956-15.884,43-23,27.279-14.882,55.577-27.18,86-40,12.8-5.395,27.509-13.2,44-14,2.78,2.652,6.552,2.85,10,5a75.242,75.242,0,0,1,18,17c5.805,8.019,11.15,18.592,15,28,1.768,4.32,1.431,8.714,4,12,8.634,5.6,39.02,2.168,52,5,14.35,3.131,30.558.622,46,4,19.692,4.308,44.161,5.334,65,6v-1c-3.357-4.746-3.584-11.415-6-17-6.679-15.44-19.149-35.353-32-45-6.314-4.739-13.628-10.89-21-14-17.2-7.257-37.916-7.633-58-12l-28-1C463.976,380.912,442.125,381.015,421,381ZM868,498l131,12v-1c-4.187-5.221-5.443-12.139-9-18-10.642-17.534-23.652-36.212-41-47-26.383-16.407-67.26-12.308-103-20-13.264-2.855-27.694.358-40-2v1h1c5.753,4.551,13.842,5.916,20,10C845.793,445.465,866.757,468.772,868,498ZM618,523l211,19c0.03-16.649.555-32.441-4-45-10.223-28.189-37.423-48.352-68-56l-60-5c-19.557-4.272-49.58-6.914-71-7v1c8.714,8.751,19.707,36.12,20,53l-28,26v14ZM295,622c-0.562-4.426-1.721-5.911-2-11l26,1-4-18-26-1v-2c-2.6-4.012-1.132-16.013-1-22h-2c-6.658,8.866-11.386,3.159-11,21,3.572,6.011,1.084,16.822,3,24,4.133,15.48,9.294,30.772,17,43,7.364,11.684,19.71,25.42,33,31,41.651,17.489,75.489-17.569,90-41,19.587-31.627,30.676-90.94,16-136-3.074-9.439-8.461-31.677-17-34-3.3,4.287-10.058,8.484-15,11,6.728,13.063,13.709,25.581,18,42,10.678,40.862-7.2,90.026-23,112a67.784,67.784,0,0,1-40,27c-9.853,2.386-25.234-1.647-28-7h1c5.359,3.788,22.568,2.594,27-1-11.336-3.155-21.375-14.949-27-24-1.58-2.542-5.165-14-7-15H295ZM644,499c4.114,0.275,4.761,1.138,8,2,0.973,3.3,1.85,4.127,2,9-3.7,3.635-3.963,5.137-12,5-2.381-3.674-3.885-4.441-4-11A46.141,46.141,0,0,0,644,499Zm-174,6c2.093,107.824-22.464,190.031-63,255-16.048,25.72-38.781,58.2-66,72v1H480c5.7-5.265,14.461-7.65,21-12,7.876-5.239,14.2-12.794,22-18v-1H506c-3.839-2.5-15.225-1.132-21-1a6.1,6.1,0,0,0-2-2l1-3c2.6-2.532,8.67-12.8,11-14h43c1.073,0.752.946,0.6,3,1,8.866-17.967,24.205-32.605,30-54H553c-4.059-2.562-18.146-1.5-23-2-0.631-1.754-.193-0.971-1-2,5.637-24.69,23.9-15.795,51-15,0.761-6.563,4.189-11.529,6-17l10-41-40-3a25.086,25.086,0,0,1-1-8c1.464-2.089,1.823-5.684,2-9,3.1-1.667,6.486-2.1,12-2,3.953,2.509,24.387,2.084,31,2,0.128-19.794,4.792-37.243,5-59l-40-2c-1.588-2.95-2.075-5.721-2-11,1.149-1.755,1.585-6.766,2-9h9c4.042,2.526,26,2.627,32,3V513Zm228,0a34.041,34.041,0,0,1,8,1c0.961,1.766,1.257,1.68,2,4,3.929,5.238-2.769,13.707-10,11-4.145-1.552-5.533-5.571-5-12A24.935,24.935,0,0,0,698,505Zm54,6,10,1c1.007,3.411,1.925,4.814,2,10-1.834,1.285-1.712,1.968-4,3-6.475,5.351-12.476-1.359-12-10A21.612,21.612,0,0,0,752,511Zm50,5h8c4.381,6.693,5.517,16.035-7,16C796.755,525.914,796.243,522.792,802,516Zm52,22c3.525,26.985.742,60.951-5,84-3.151,12.65-2.146,24.112-6,36-15.242,47.013-29.616,88.975-55,125-9.384,13.318-21.565,25.576-33,37-4.441,4.437-10.451,7.712-14,13H851c4.513-4.556,10.754-7.151,16-11,5.6-4.11,10.038-10.087,16-14v-1H866c-3.839-2.5-15.225-1.132-21-1a14.124,14.124,0,0,1-1-4c3.027-2.935,8.171-12.222,11-14h44c0.713,0.566.042,1.442,2,1v-1c10.8-8.55,23.365-32.9,30-46H916c-6.636-3.989-20.764,1.006-27-3-0.8-1.18-.773-1.681-1-4,2.8-3.149,3.09-8.851,6-12,2.775-3,18.79-1.14,24-1,2.819,1.892,19.826,1.7,21,1,5.494-5.994,17.007-40.15,18-51l-41-2a10.925,10.925,0,0,0-2-3c1.438-4.507,2.072-12.806,6-15,4.064-2.427,33.022.848,42,1,1.165-18.514,5.779-35.635,6-57l-38-2c-1.3-2.418-1.8-2.833-2-7,1.337-1.992,1.1-6.507,1-10,2.806-1.513,4.964-2.043,10-2,4.06,2.579,23.179,2.09,30,2q-1-14.5-2-29c-14.418.122-30.143-1.188-43-4l-23-1ZM251,594c-10.757,11-26.242,18.06-39,27-16.962,11.887-33.329,27.262-52,37v1h1c7.106,7.394,15.023,12.259,20,22,19.588-11.151,37.491-26.563,56-39,5.95-4,17.346-7.028,19-15C250.9,619.465,255.575,601.264,251,594ZM87,762H70v-2c-5.039-7.681,1.962-33.03,3-40H72c-2.626,2.573-6.3,3.434-8,7-3.671,5.488-3.739,29.254-2,37,1.478,6.582.125,11.232,2,17,6.426,19.765,25.764,55.06,59,43,30.289-10.991,56.9-68.124,42-114-3.424-10.544-8.843-21.732-15-30-2.326-3.124-6.561-4.9-9-8h-1v1c-4.157,2.032-6.954,4.887-11,7v1h1c9.131,8.563,16.88,15.188,22,28,10.877,27.218,2.115,65.869-11,84-5.454,7.541-14.676,15.443-25,18-6.918,1.713-15.977-.169-18-4,4.191,1.733,12.9,1.562,15-2-9.96-2.767-16.9-15.148-21-24-7.255.171-13.829-.131-19-2l-1-5H90v-1C87.982,770.464,87.248,766.242,87,762Zm150-86c-5.614,5.4-20.229,8.381-22,17,1.965,3.277.546,7.012,4,9,7.351-6.623,21.861-7.245,28-15C242.689,684.1,240.992,679.1,237,676Zm71,37c-8.188,5.606-17.209,6.2-23,14-16.425,22.125-26.8,61.878-8,90,4.2,6.281,7.937,11.782,16,14,15.013,4.129,25.153-5.185,31-11a78.45,78.45,0,0,0,18-27C354.97,760.443,345.214,712.378,308,713Zm-30,82a12.662,12.662,0,0,0-1-4h11a34.041,34.041,0,0,0-1-8H276c-0.7-23.789,9.108-49.126,27-54,7.356-2,13.441,1.725,18,3,3.954,5.748,8.745,11.363,11,19,7.039,23.835-8.353,60.278-26,62-3.432,2.572-7.528,1.631-12,1v-2c3.28,0.117,7.184.236,9-1C289.784,806.171,298.224,794.808,278,795Zm-66-59c-0.86.649-3.144,1.338-4,2-16.239,5.1-32.968,41.772-25,68,4.348,14.312,10.663,17.341,20,26,5.419,0.093,11.987.662,16-1,16.254-6.733,35.11-41.839,26-70-4.033-12.467-10.672-17.188-19-25H212Zm-21,63h9v-1c-0.778-1.065-1.489-3.692-2-5-3.09.094-6.33,0.14-8-1-1.337-1.992-1.1-6.507-1-10,2.132-3.509,1.316-8.973,3-13,5.374-12.849,13.074-21.006,30-20,4.971,6.111,10.439,10.042,13,19,5.168,18.079-6.61,47.652-21,49-1.838,1.238-5.7,1.089-9,1v-2c2.72,0.007,4.6-.039,6-1-5.3-1.8-7.773-7.186-10-12-3.806.084-7.57-.144-10-1v-3Z"/>
</svg>
